<?xml version="1.0" standalone="no"?><svg xmlns:xlink="http://www.w3.org/1999/xlink" xmlns="http://www.w3.org/2000/svg" viewBox="0 0 1800 863.9964238410597" preserveAspectRatio="xMaxYMax slice"><g transform="scale(1.1920529801324504)"><rect x="0" y="0" width="1510" height="724.8" fill="#ffffff"/><rect x="362.4" y="60.4" width="60.4" height="60.4" fill="#ffffff"/><rect x="422.8" y="60.4" width="60.4" height="60.4" fill="#ffffff"/><rect x="453" y="60.4" width="30.2" height="30.2" fill="#d1e9ff"/><rect x="604" y="60.4" width="60.4" height="60.4" fill="#ffffff"/><rect x="1147.6" y="60.4" width="60.4" height="60.4" fill="#ffffff"/><rect x="0" y="120.8" width="60.4" height="60.4" fill="#ffffff"/><rect x="30.2" y="151" width="30.2" height="30.2" fill="#43a4ff"/><rect x="60.4" y="120.8" width="60.4" height="60.4" fill="#ffffff"/><rect x="120.8" y="120.8" width="60.4" height="60.4" fill="#ffffff"/><rect x="422.8" y="120.8" width="60.4" height="60.4" fill="#ffffff"/><rect x="422.8" y="151" width="30.2" height="30.2" fill="#81c2ff"/><rect x="845.6" y="120.8" width="60.4" height="60.4" fill="#ffffff"/><rect x="845.6" y="151" width="30.2" height="30.2" fill="#f4faff"/><rect x="875.8" y="151" width="30.2" height="30.2" fill="#514f84"/><rect x="1449.6" y="120.8" width="60.4" height="60.4" fill="#ffffff"/><rect x="0" y="181.2" width="60.4" height="60.4" fill="#ffffff"/><rect x="0" y="211.4" width="30.2" height="30.2" fill="#a8a7c1"/><rect x="241.6" y="181.2" width="60.4" height="60.4" fill="#ffffff"/><rect x="241.6" y="211.4" width="30.2" height="30.2" fill="#97cdff"/><rect x="271.8" y="211.4" width="30.2" height="30.2" fill="#e0e0e9"/><rect x="483.2" y="181.2" width="60.4" height="60.4" fill="#ffffff"/><rect x="483.2" y="181.2" width="30.2" height="30.2" fill="#339cff"/><rect x="483.2" y="211.4" width="30.2" height="30.2" fill="#d6ebff"/><rect x="543.6" y="181.2" width="60.4" height="60.4" fill="#ffffff"/><rect x="966.4" y="181.2" width="60.4" height="60.4" fill="#ffffff"/><rect x="996.6" y="181.2" width="30.2" height="30.2" fill="#44427b"/><rect x="966.4" y="211.4" width="30.2" height="30.2" fill="#b8ddff"/><rect x="996.6" y="211.4" width="30.2" height="30.2" fill="#c8e4ff"/><rect x="1328.8" y="181.2" width="60.4" height="60.4" fill="#ffffff"/><rect x="1328.8" y="181.2" width="30.2" height="30.2" fill="#2d2a6a"/><rect x="1328.8" y="211.4" width="30.2" height="30.2" fill="#c5c4d6"/><rect x="1359" y="211.4" width="30.2" height="30.2" fill="#90c9ff"/><rect x="60.4" y="241.6" width="60.4" height="60.4" fill="#ffffff"/><rect x="90.6" y="241.6" width="30.2" height="30.2" fill="#a3a1be"/><rect x="302" y="241.6" width="60.4" height="60.4" fill="#ffffff"/><rect x="332.2" y="271.8" width="30.2" height="30.2" fill="#61b3ff"/><rect x="362.4" y="241.6" width="60.4" height="60.4" fill="#ffffff"/><rect x="362.4" y="271.8" width="30.2" height="30.2" fill="#f0f7ff"/><rect x="604" y="241.6" width="60.4" height="60.4" fill="#ffffff"/><rect x="664.4" y="241.6" width="60.4" height="60.4" fill="#ffffff"/><rect x="694.6" y="241.6" width="30.2" height="30.2" fill="#cecddc"/><rect x="694.6" y="271.8" width="30.2" height="30.2" fill="#5cb0ff"/><rect x="724.8" y="241.6" width="60.4" height="60.4" fill="#ffffff"/><rect x="724.8" y="271.8" width="30.2" height="30.2" fill="#41a3ff"/><rect x="785.1999999999999" y="241.6" width="60.4" height="60.4" fill="#ffffff"/><rect x="785.2" y="271.8" width="30.2" height="30.2" fill="#b1b0c8"/><rect x="815.4" y="271.8" width="30.2" height="30.2" fill="#f4faff"/><rect x="845.6" y="241.6" width="60.4" height="60.4" fill="#ffffff"/><rect x="875.8" y="241.6" width="30.2" height="30.2" fill="#686694"/><rect x="875.8" y="271.8" width="30.2" height="30.2" fill="#65b4ff"/><rect x="966.4" y="241.6" width="60.4" height="60.4" fill="#ffffff"/><rect x="966.4" y="241.6" width="30.2" height="30.2" fill="#5fb1ff"/><rect x="1087.2" y="241.6" width="60.4" height="60.4" fill="#ffffff"/><rect x="1087.2" y="241.6" width="30.2" height="30.2" fill="#7abeff"/><rect x="1117.4" y="241.6" width="30.2" height="30.2" fill="#262466"/><rect x="1087.2" y="271.8" width="30.2" height="30.2" fill="#77769f"/><rect x="1117.4" y="271.8" width="30.2" height="30.2" fill="#a6a4c0"/><rect x="1147.6" y="241.6" width="60.4" height="60.4" fill="#ffffff"/><rect x="1147.6" y="241.6" width="30.2" height="30.2" fill="#ddeeff"/><rect x="1177.8" y="241.6" width="30.2" height="30.2" fill="#5eb1ff"/><rect x="1147.6" y="271.8" width="30.2" height="30.2" fill="#383672"/><rect x="1268.3999999999999" y="241.6" width="60.4" height="60.4" fill="#ffffff"/><rect x="1298.6" y="271.8" width="30.2" height="30.2" fill="#6e6d99"/><rect x="1389.2" y="241.6" width="60.4" height="60.4" fill="#ffffff"/><rect x="1419.4" y="241.6" width="30.2" height="30.2" fill="#dbdbe6"/><rect x="1389.2" y="271.8" width="30.2" height="30.2" fill="#afaec6"/><rect x="0" y="302" width="60.4" height="60.4" fill="#ffffff"/><rect x="0" y="302" width="30.2" height="30.2" fill="#0c0953"/><rect x="30.2" y="302" width="30.2" height="30.2" fill="#5eb1ff"/><rect x="0" y="332.2" width="30.2" height="30.2" fill="#dbeeff"/><rect x="120.8" y="302" width="60.4" height="60.4" fill="#ffffff"/><rect x="120.8" y="302" width="30.2" height="30.2" fill="#c8c7d8"/><rect x="120.8" y="332.2" width="30.2" height="30.2" fill="#deefff"/><rect x="181.2" y="302" width="60.4" height="60.4" fill="#ffffff"/><rect x="211.4" y="302" width="30.2" height="30.2" fill="#68b5ff"/><rect x="181.2" y="332.2" width="30.2" height="30.2" fill="#58aeff"/><rect x="211.4" y="332.2" width="30.2" height="30.2" fill="#edf6ff"/><rect x="362.4" y="302" width="60.4" height="60.4" fill="#ffffff"/><rect x="362.4" y="302" width="30.2" height="30.2" fill="#c4e3ff"/><rect x="392.6" y="302" width="30.2" height="30.2" fill="#b8ddff"/><rect x="362.4" y="332.2" width="30.2" height="30.2" fill="#6b6a96"/><rect x="392.6" y="332.2" width="30.2" height="30.2" fill="#c7e4ff"/><rect x="483.2" y="302" width="60.4" height="60.4" fill="#ffffff"/><rect x="483.2" y="302" width="30.2" height="30.2" fill="#f4f9ff"/><rect x="513.4" y="302" width="30.2" height="30.2" fill="#44a4ff"/><rect x="483.2" y="332.2" width="30.2" height="30.2" fill="#0d0a54"/><rect x="513.4" y="332.2" width="30.2" height="30.2" fill="#4c4a80"/><rect x="724.8" y="302" width="60.4" height="60.4" fill="#ffffff"/><rect x="724.8" y="302" width="30.2" height="30.2" fill="#53acff"/><rect x="755" y="302" width="30.2" height="30.2" fill="#5a588a"/><rect x="785.1999999999999" y="302" width="60.4" height="60.4" fill="#ffffff"/><rect x="815.4" y="302" width="30.2" height="30.2" fill="#4f4d82"/><rect x="845.6" y="302" width="60.4" height="60.4" fill="#ffffff"/><rect x="875.8" y="302" width="30.2" height="30.2" fill="#ffffff"/><rect x="845.6" y="332.2" width="30.2" height="30.2" fill="#eaeaf0"/><rect x="875.8" y="332.2" width="30.2" height="30.2" fill="#c7c7d8"/><rect x="906" y="302" width="60.4" height="60.4" fill="#ffffff"/><rect x="906" y="302" width="30.2" height="30.2" fill="#edf6ff"/><rect x="936.2" y="332.2" width="30.2" height="30.2" fill="#e9e9ef"/><rect x="1026.8" y="302" width="60.4" height="60.4" fill="#ffffff"/><rect x="1057" y="302" width="30.2" height="30.2" fill="#5d5c8d"/><rect x="1026.8" y="332.2" width="30.2" height="30.2" fill="#7bbfff"/><rect x="1057" y="332.2" width="30.2" height="30.2" fill="#9796b6"/><rect x="1087.2" y="302" width="60.4" height="60.4" fill="#ffffff"/><rect x="1087.2" y="332.2" width="30.2" height="30.2" fill="#44a4ff"/><rect x="1268.3999999999999" y="302" width="60.4" height="60.4" fill="#ffffff"/><rect x="1268.4" y="302" width="30.2" height="30.2" fill="#61b2ff"/><rect x="1298.6" y="332.2" width="30.2" height="30.2" fill="#8d8bae"/><rect x="1389.2" y="302" width="60.4" height="60.4" fill="#ffffff"/><rect x="1419.4" y="332.2" width="30.2" height="30.2" fill="#a9d5ff"/><rect x="0" y="362.4" width="60.4" height="60.4" fill="#ffffff"/><rect x="0" y="362.4" width="30.2" height="30.2" fill="#a3d2ff"/><rect x="30.2" y="362.4" width="30.2" height="30.2" fill="#1e1b60"/><rect x="30.2" y="392.6" width="30.2" height="30.2" fill="#3c3a75"/><rect x="60.4" y="362.4" width="60.4" height="60.4" fill="#ffffff"/><rect x="90.6" y="392.6" width="30.2" height="30.2" fill="#379eff"/><rect x="181.2" y="362.4" width="60.4" height="60.4" fill="#ffffff"/><rect x="211.4" y="362.4" width="30.2" height="30.2" fill="#c3e2ff"/><rect x="181.2" y="392.6" width="30.2" height="30.2" fill="#aad6ff"/><rect x="211.4" y="392.6" width="30.2" height="30.2" fill="#82c2ff"/><rect x="241.6" y="362.4" width="60.4" height="60.4" fill="#ffffff"/><rect x="241.6" y="362.4" width="30.2" height="30.2" fill="#5cb0ff"/><rect x="271.8" y="362.4" width="30.2" height="30.2" fill="#2b2969"/><rect x="241.6" y="392.6" width="30.2" height="30.2" fill="#8483a8"/><rect x="604" y="362.4" width="60.4" height="60.4" fill="#ffffff"/><rect x="634.2" y="362.4" width="30.2" height="30.2" fill="#fcfcfd"/><rect x="724.8" y="362.4" width="60.4" height="60.4" fill="#ffffff"/><rect x="724.8" y="362.4" width="30.2" height="30.2" fill="#636190"/><rect x="755" y="392.6" width="30.2" height="30.2" fill="#d7ecff"/><rect x="785.1999999999999" y="362.4" width="60.4" height="60.4" fill="#ffffff"/><rect x="785.2" y="392.6" width="30.2" height="30.2" fill="#afd8ff"/><rect x="815.4" y="392.6" width="30.2" height="30.2" fill="#eff7ff"/><rect x="906" y="362.4" width="60.4" height="60.4" fill="#ffffff"/><rect x="936.2" y="362.4" width="30.2" height="30.2" fill="#dfdee8"/><rect x="906" y="392.6" width="30.2" height="30.2" fill="#fafdff"/><rect x="966.4" y="362.4" width="60.4" height="60.4" fill="#ffffff"/><rect x="966.4" y="392.6" width="30.2" height="30.2" fill="#51abff"/><rect x="996.6" y="392.6" width="30.2" height="30.2" fill="#70b9ff"/><rect x="1087.2" y="362.4" width="60.4" height="60.4" fill="#ffffff"/><rect x="1117.4" y="362.4" width="30.2" height="30.2" fill="#7d7ba3"/><rect x="1208" y="362.4" width="60.4" height="60.4" fill="#ffffff"/><rect x="1208" y="362.4" width="30.2" height="30.2" fill="#8fc9ff"/><rect x="1238.2" y="362.4" width="30.2" height="30.2" fill="#9b9ab8"/><rect x="1238.2" y="392.6" width="30.2" height="30.2" fill="#40a2ff"/><rect x="1268.3999999999999" y="362.4" width="60.4" height="60.4" fill="#ffffff"/><rect x="1298.6" y="362.4" width="30.2" height="30.2" fill="#201d61"/><rect x="1298.6" y="392.6" width="30.2" height="30.2" fill="#9dcfff"/><rect x="1328.8" y="362.4" width="60.4" height="60.4" fill="#ffffff"/><rect x="1328.8" y="362.4" width="30.2" height="30.2" fill="#4aa7ff"/><rect x="1359" y="392.6" width="30.2" height="30.2" fill="#fdfeff"/><rect x="1449.6" y="362.4" width="60.4" height="60.4" fill="#ffffff"/><rect x="1449.6" y="362.4" width="30.2" height="30.2" fill="#f2f9ff"/><rect x="1479.8" y="392.6" width="30.2" height="30.2" fill="#94cbff"/><rect x="0" y="422.8" width="60.4" height="60.4" fill="#ffffff"/><rect x="30.2" y="422.8" width="30.2" height="30.2" fill="#8c8bae"/><rect x="0" y="453" width="30.2" height="30.2" fill="#eef7ff"/><rect x="30.2" y="453" width="30.2" height="30.2" fill="#f2f9ff"/><rect x="60.4" y="422.8" width="60.4" height="60.4" fill="#ffffff"/><rect x="90.6" y="422.8" width="30.2" height="30.2" fill="#77769f"/><rect x="90.6" y="453" width="30.2" height="30.2" fill="#676593"/><rect x="120.8" y="422.8" width="60.4" height="60.4" fill="#ffffff"/><rect x="120.8" y="422.8" width="30.2" height="30.2" fill="#9593b4"/><rect x="120.8" y="453" width="30.2" height="30.2" fill="#f9fcff"/><rect x="151" y="453" width="30.2" height="30.2" fill="#b0d9ff"/><rect x="181.2" y="422.8" width="60.4" height="60.4" fill="#ffffff"/><rect x="211.4" y="422.8" width="30.2" height="30.2" fill="#17145b"/><rect x="181.2" y="453" width="30.2" height="30.2" fill="#c3c3d5"/><rect x="211.4" y="453" width="30.2" height="30.2" fill="#dbeeff"/><rect x="241.6" y="422.8" width="60.4" height="60.4" fill="#ffffff"/><rect x="271.8" y="422.8" width="30.2" height="30.2" fill="#646291"/><rect x="241.6" y="453" width="30.2" height="30.2" fill="#6d6b97"/><rect x="302" y="422.8" width="60.4" height="60.4" fill="#ffffff"/><rect x="332.2" y="453" width="30.2" height="30.2" fill="#349dff"/><rect x="362.4" y="422.8" width="60.4" height="60.4" fill="#ffffff"/><rect x="392.6" y="422.8" width="30.2" height="30.2" fill="#393673"/><rect x="362.4" y="453" width="30.2" height="30.2" fill="#3e3b76"/><rect x="483.2" y="422.8" width="60.4" height="60.4" fill="#ffffff"/><rect x="483.2" y="422.8" width="30.2" height="30.2" fill="#d8ecff"/><rect x="513.4" y="422.8" width="30.2" height="30.2" fill="#d9d8e4"/><rect x="543.6" y="422.8" width="60.4" height="60.4" fill="#ffffff"/><rect x="543.6" y="422.8" width="30.2" height="30.2" fill="#b6b5cb"/><rect x="573.8" y="422.8" width="30.2" height="30.2" fill="#d2d2df"/><rect x="573.8" y="453" width="30.2" height="30.2" fill="#7cc0ff"/><rect x="604" y="422.8" width="60.4" height="60.4" fill="#ffffff"/><rect x="604" y="422.8" width="30.2" height="30.2" fill="#e3e3eb"/><rect x="664.4" y="422.8" width="60.4" height="60.4" fill="#ffffff"/><rect x="694.6" y="422.8" width="30.2" height="30.2" fill="#68b6ff"/><rect x="664.4" y="453" width="30.2" height="30.2" fill="#3da1ff"/><rect x="694.6" y="453" width="30.2" height="30.2" fill="#7cbfff"/><rect x="785.1999999999999" y="422.8" width="60.4" height="60.4" fill="#ffffff"/><rect x="815.4" y="422.8" width="30.2" height="30.2" fill="#8ec8ff"/><rect x="785.2" y="453" width="30.2" height="30.2" fill="#6cb8ff"/><rect x="815.4" y="453" width="30.2" height="30.2" fill="#120f57"/><rect x="845.6" y="422.8" width="60.4" height="60.4" fill="#ffffff"/><rect x="845.6" y="422.8" width="30.2" height="30.2" fill="#fdfeff"/><rect x="875.8" y="422.8" width="30.2" height="30.2" fill="#1c195e"/><rect x="875.8" y="453" width="30.2" height="30.2" fill="#9fd0ff"/><rect x="906" y="422.8" width="60.4" height="60.4" fill="#ffffff"/><rect x="906" y="422.8" width="30.2" height="30.2" fill="#5f5d8d"/><rect x="936.2" y="422.8" width="30.2" height="30.2" fill="#8cc7ff"/><rect x="966.4" y="422.8" width="60.4" height="60.4" fill="#ffffff"/><rect x="966.4" y="422.8" width="30.2" height="30.2" fill="#9897b6"/><rect x="996.6" y="422.8" width="30.2" height="30.2" fill="#badeff"/><rect x="996.6" y="453" width="30.2" height="30.2" fill="#a09ebb"/><rect x="1087.2" y="422.8" width="60.4" height="60.4" fill="#ffffff"/><rect x="1117.4" y="422.8" width="30.2" height="30.2" fill="#272566"/><rect x="1087.2" y="453" width="30.2" height="30.2" fill="#dfdfe8"/><rect x="1147.6" y="422.8" width="60.4" height="60.4" fill="#ffffff"/><rect x="1147.6" y="422.8" width="30.2" height="30.2" fill="#d0cfde"/><rect x="1177.8" y="453" width="30.2" height="30.2" fill="#cbe6ff"/><rect x="1208" y="422.8" width="60.4" height="60.4" fill="#ffffff"/><rect x="1208" y="422.8" width="30.2" height="30.2" fill="#e2f1ff"/><rect x="1238.2" y="422.8" width="30.2" height="30.2" fill="#1d1a5f"/><rect x="1208" y="453" width="30.2" height="30.2" fill="#d4d3e1"/><rect x="1238.2" y="453" width="30.2" height="30.2" fill="#5e5c8d"/><rect x="1268.3999999999999" y="422.8" width="60.4" height="60.4" fill="#ffffff"/><rect x="1268.4" y="453" width="30.2" height="30.2" fill="#bfbed1"/><rect x="1298.6" y="453" width="30.2" height="30.2" fill="#a1d1ff"/><rect x="1328.8" y="422.8" width="60.4" height="60.4" fill="#ffffff"/><rect x="1328.8" y="422.8" width="30.2" height="30.2" fill="#221f62"/><rect x="1328.8" y="453" width="30.2" height="30.2" fill="#64b4ff"/><rect x="1359" y="453" width="30.2" height="30.2" fill="#636190"/><rect x="1389.2" y="422.8" width="60.4" height="60.4" fill="#ffffff"/><rect x="1389.2" y="422.8" width="30.2" height="30.2" fill="#4a487f"/><rect x="1419.4" y="422.8" width="30.2" height="30.2" fill="#bdbcd0"/><rect x="1389.2" y="453" width="30.2" height="30.2" fill="#a09ebb"/><rect x="1419.4" y="453" width="30.2" height="30.2" fill="#5b598b"/><rect x="120.8" y="483.2" width="60.4" height="60.4" fill="#ffffff"/><rect x="181.2" y="483.2" width="60.4" height="60.4" fill="#ffffff"/><rect x="181.2" y="483.2" width="30.2" height="30.2" fill="#4a477f"/><rect x="211.4" y="483.2" width="30.2" height="30.2" fill="#77bdff"/><rect x="181.2" y="513.4" width="30.2" height="30.2" fill="#7978a0"/><rect x="302" y="483.2" width="60.4" height="60.4" fill="#ffffff"/><rect x="302" y="483.2" width="30.2" height="30.2" fill="#d7ebff"/><rect x="302" y="513.4" width="30.2" height="30.2" fill="#3ba0ff"/><rect x="332.2" y="513.4" width="30.2" height="30.2" fill="#ecf6ff"/><rect x="422.8" y="483.2" width="60.4" height="60.4" fill="#ffffff"/><rect x="422.8" y="483.2" width="30.2" height="30.2" fill="#e2e2eb"/><rect x="453" y="483.2" width="30.2" height="30.2" fill="#a5a4bf"/><rect x="422.8" y="513.4" width="30.2" height="30.2" fill="#4ea9ff"/><rect x="453" y="513.4" width="30.2" height="30.2" fill="#75bcff"/><rect x="664.4" y="483.2" width="60.4" height="60.4" fill="#ffffff"/><rect x="694.6" y="483.2" width="30.2" height="30.2" fill="#72bbff"/><rect x="664.4" y="513.4" width="30.2" height="30.2" fill="#dfdfe8"/><rect x="694.6" y="513.4" width="30.2" height="30.2" fill="#dbeeff"/><rect x="724.8" y="483.2" width="60.4" height="60.4" fill="#ffffff"/><rect x="724.8" y="483.2" width="30.2" height="30.2" fill="#d8d8e4"/><rect x="755" y="483.2" width="30.2" height="30.2" fill="#1d1a5f"/><rect x="724.8" y="513.4" width="30.2" height="30.2" fill="#5b598b"/><rect x="755" y="513.4" width="30.2" height="30.2" fill="#2e2c6b"/><rect x="906" y="483.2" width="60.4" height="60.4" fill="#ffffff"/><rect x="906" y="483.2" width="30.2" height="30.2" fill="#322f6e"/><rect x="936.2" y="483.2" width="30.2" height="30.2" fill="#b9ddff"/><rect x="906" y="513.4" width="30.2" height="30.2" fill="#e7e7ee"/><rect x="966.4" y="483.2" width="60.4" height="60.4" fill="#ffffff"/><rect x="996.6" y="483.2" width="30.2" height="30.2" fill="#c1e1ff"/><rect x="966.4" y="513.4" width="30.2" height="30.2" fill="#8e8daf"/><rect x="996.6" y="513.4" width="30.2" height="30.2" fill="#595789"/><rect x="1087.2" y="483.2" width="60.4" height="60.4" fill="#ffffff"/><rect x="1087.2" y="483.2" width="30.2" height="30.2" fill="#f9fcff"/><rect x="1117.4" y="483.2" width="30.2" height="30.2" fill="#d0d0de"/><rect x="1087.2" y="513.4" width="30.2" height="30.2" fill="#ccccdb"/><rect x="1117.4" y="513.4" width="30.2" height="30.2" fill="#c9c8d9"/><rect x="1147.6" y="483.2" width="60.4" height="60.4" fill="#ffffff"/><rect x="1147.6" y="483.2" width="30.2" height="30.2" fill="#5db0ff"/><rect x="1147.6" y="513.4" width="30.2" height="30.2" fill="#3ba0ff"/><rect x="1177.8" y="513.4" width="30.2" height="30.2" fill="#cee7ff"/><rect x="1208" y="483.2" width="60.4" height="60.4" fill="#ffffff"/><rect x="1208" y="483.2" width="30.2" height="30.2" fill="#33316f"/><rect x="1238.2" y="483.2" width="30.2" height="30.2" fill="#ddeeff"/><rect x="1208" y="513.4" width="30.2" height="30.2" fill="#87c5ff"/><rect x="1328.8" y="483.2" width="60.4" height="60.4" fill="#ffffff"/><rect x="1328.8" y="483.2" width="30.2" height="30.2" fill="#bedfff"/><rect x="1359" y="483.2" width="30.2" height="30.2" fill="#d3eaff"/><rect x="1328.8" y="513.4" width="30.2" height="30.2" fill="#817fa6"/><rect x="1359" y="513.4" width="30.2" height="30.2" fill="#d0e8ff"/><rect x="0" y="543.6" width="60.4" height="60.4" fill="#ffffff"/><rect x="0" y="543.6" width="30.2" height="30.2" fill="#0d0a54"/><rect x="30.2" y="543.6" width="30.2" height="30.2" fill="#9aceff"/><rect x="0" y="573.8" width="30.2" height="30.2" fill="#9291b2"/><rect x="30.2" y="573.8" width="30.2" height="30.2" fill="#696795"/><rect x="60.4" y="543.6" width="60.4" height="60.4" fill="#ffffff"/><rect x="60.4" y="543.6" width="30.2" height="30.2" fill="#302d6c"/><rect x="90.6" y="543.6" width="30.2" height="30.2" fill="#47a5ff"/><rect x="60.4" y="573.8" width="30.2" height="30.2" fill="#53acff"/><rect x="90.6" y="573.8" width="30.2" height="30.2" fill="#2a2768"/><rect x="120.8" y="543.6" width="60.4" height="60.4" fill="#ffffff"/><rect x="120.8" y="543.6" width="30.2" height="30.2" fill="#8c8bae"/><rect x="151" y="543.6" width="30.2" height="30.2" fill="#98cdff"/><rect x="120.8" y="573.8" width="30.2" height="30.2" fill="#e1f1ff"/><rect x="181.2" y="543.6" width="60.4" height="60.4" fill="#ffffff"/><rect x="181.2" y="543.6" width="30.2" height="30.2" fill="#f2f2f6"/><rect x="211.4" y="543.6" width="30.2" height="30.2" fill="#ecf6ff"/><rect x="181.2" y="573.8" width="30.2" height="30.2" fill="#f0f0f4"/><rect x="211.4" y="573.8" width="30.2" height="30.2" fill="#8f8eb0"/><rect x="241.6" y="543.6" width="60.4" height="60.4" fill="#ffffff"/><rect x="241.6" y="543.6" width="30.2" height="30.2" fill="#abd6ff"/><rect x="271.8" y="543.6" width="30.2" height="30.2" fill="#bcdeff"/><rect x="241.6" y="573.8" width="30.2" height="30.2" fill="#605e8e"/><rect x="271.8" y="573.8" width="30.2" height="30.2" fill="#0d0a53"/><rect x="302" y="543.6" width="60.4" height="60.4" fill="#ffffff"/><rect x="302" y="543.6" width="30.2" height="30.2" fill="#bee0ff"/><rect x="332.2" y="543.6" width="30.2" height="30.2" fill="#75bcff"/><rect x="302" y="573.8" width="30.2" height="30.2" fill="#aad6ff"/><rect x="332.2" y="573.8" width="30.2" height="30.2" fill="#9dcfff"/><rect x="422.8" y="543.6" width="60.4" height="60.4" fill="#ffffff"/><rect x="453" y="543.6" width="30.2" height="30.2" fill="#93cbff"/><rect x="422.8" y="573.8" width="30.2" height="30.2" fill="#a1d1ff"/><rect x="483.2" y="543.6" width="60.4" height="60.4" fill="#ffffff"/><rect x="483.2" y="543.6" width="30.2" height="30.2" fill="#54acff"/><rect x="513.4" y="543.6" width="30.2" height="30.2" fill="#ddefff"/><rect x="483.2" y="573.8" width="30.2" height="30.2" fill="#c0e0ff"/><rect x="543.6" y="543.6" width="60.4" height="60.4" fill="#ffffff"/><rect x="543.6" y="543.6" width="30.2" height="30.2" fill="#77759f"/><rect x="573.8" y="543.6" width="30.2" height="30.2" fill="#e9f4ff"/><rect x="543.6" y="573.8" width="30.2" height="30.2" fill="#9aceff"/><rect x="573.8" y="573.8" width="30.2" height="30.2" fill="#0f0c55"/><rect x="604" y="543.6" width="60.4" height="60.4" fill="#ffffff"/><rect x="604" y="543.6" width="30.2" height="30.2" fill="#807fa5"/><rect x="634.2" y="543.6" width="30.2" height="30.2" fill="#696895"/><rect x="604" y="573.8" width="30.2" height="30.2" fill="#d3eaff"/><rect x="634.2" y="573.8" width="30.2" height="30.2" fill="#b2d9ff"/><rect x="664.4" y="543.6" width="60.4" height="60.4" fill="#ffffff"/><rect x="664.4" y="543.6" width="30.2" height="30.2" fill="#8886ab"/><rect x="694.6" y="543.6" width="30.2" height="30.2" fill="#67b5ff"/><rect x="664.4" y="573.8" width="30.2" height="30.2" fill="#dedde7"/><rect x="694.6" y="573.8" width="30.2" height="30.2" fill="#d7ebff"/><rect x="724.8" y="543.6" width="60.4" height="60.4" fill="#ffffff"/><rect x="724.8" y="543.6" width="30.2" height="30.2" fill="#d3eaff"/><rect x="755" y="543.6" width="30.2" height="30.2" fill="#716f9a"/><rect x="724.8" y="573.8" width="30.2" height="30.2" fill="#6b6a97"/><rect x="755" y="573.8" width="30.2" height="30.2" fill="#8e8daf"/><rect x="785.1999999999999" y="543.6" width="60.4" height="60.4" fill="#ffffff"/><rect x="785.2" y="543.6" width="30.2" height="30.2" fill="#716f9a"/><rect x="815.4" y="543.6" width="30.2" height="30.2" fill="#e3e3eb"/><rect x="785.2" y="573.8" width="30.2" height="30.2" fill="#c4e2ff"/><rect x="815.4" y="573.8" width="30.2" height="30.2" fill="#d3eaff"/><rect x="845.6" y="543.6" width="60.4" height="60.4" fill="#ffffff"/><rect x="845.6" y="543.6" width="30.2" height="30.2" fill="#383672"/><rect x="875.8" y="543.6" width="30.2" height="30.2" fill="#302d6c"/><rect x="875.8" y="573.8" width="30.2" height="30.2" fill="#61b2ff"/><rect x="906" y="543.6" width="60.4" height="60.4" fill="#ffffff"/><rect x="906" y="543.6" width="30.2" height="30.2" fill="#c0e1ff"/><rect x="936.2" y="543.6" width="30.2" height="30.2" fill="#cfcedd"/><rect x="906" y="573.8" width="30.2" height="30.2" fill="#c6e3ff"/><rect x="936.2" y="573.8" width="30.2" height="30.2" fill="#b9ddff"/><rect x="966.4" y="543.6" width="60.4" height="60.4" fill="#ffffff"/><rect x="966.4" y="543.6" width="30.2" height="30.2" fill="#c1c1d3"/><rect x="996.6" y="543.6" width="30.2" height="30.2" fill="#9aceff"/><rect x="966.4" y="573.8" width="30.2" height="30.2" fill="#48a6ff"/><rect x="996.6" y="573.8" width="30.2" height="30.2" fill="#d4d3e0"/><rect x="1026.8" y="543.6" width="60.4" height="60.4" fill="#ffffff"/><rect x="1026.8" y="543.6" width="30.2" height="30.2" fill="#73bbff"/><rect x="1057" y="543.6" width="30.2" height="30.2" fill="#131058"/><rect x="1026.8" y="573.8" width="30.2" height="30.2" fill="#242164"/><rect x="1057" y="573.8" width="30.2" height="30.2" fill="#ffffff"/><rect x="1087.2" y="543.6" width="60.4" height="60.4" fill="#ffffff"/><rect x="1087.2" y="543.6" width="30.2" height="30.2" fill="#67b5ff"/><rect x="1117.4" y="543.6" width="30.2" height="30.2" fill="#9190b1"/><rect x="1087.2" y="573.8" width="30.2" height="30.2" fill="#b2b1c8"/><rect x="1117.4" y="573.8" width="30.2" height="30.2" fill="#100d56"/><rect x="1147.6" y="543.6" width="60.4" height="60.4" fill="#ffffff"/><rect x="1147.6" y="543.6" width="30.2" height="30.2" fill="#cccbdb"/><rect x="1177.8" y="543.6" width="30.2" height="30.2" fill="#b6dcff"/><rect x="1147.6" y="573.8" width="30.2" height="30.2" fill="#b5dbff"/><rect x="1208" y="543.6" width="60.4" height="60.4" fill="#ffffff"/><rect x="1208" y="543.6" width="30.2" height="30.2" fill="#b2d9ff"/><rect x="1238.2" y="543.6" width="30.2" height="30.2" fill="#9ed0ff"/><rect x="1208" y="573.8" width="30.2" height="30.2" fill="#6a6895"/><rect x="1238.2" y="573.8" width="30.2" height="30.2" fill="#ddeeff"/><rect x="1268.3999999999999" y="543.6" width="60.4" height="60.4" fill="#ffffff"/><rect x="1268.4" y="543.6" width="30.2" height="30.2" fill="#58aeff"/><rect x="1298.6" y="543.6" width="30.2" height="30.2" fill="#aeadc6"/><rect x="1268.4" y="573.8" width="30.2" height="30.2" fill="#8fc9ff"/><rect x="1298.6" y="573.8" width="30.2" height="30.2" fill="#b9b8cd"/><rect x="1328.8" y="543.6" width="60.4" height="60.4" fill="#ffffff"/><rect x="1328.8" y="543.6" width="30.2" height="30.2" fill="#42a4ff"/><rect x="1359" y="543.6" width="30.2" height="30.2" fill="#8381a7"/><rect x="1328.8" y="573.8" width="30.2" height="30.2" fill="#e6f3ff"/><rect x="1359" y="573.8" width="30.2" height="30.2" fill="#100d55"/><rect x="1389.2" y="543.6" width="60.4" height="60.4" fill="#ffffff"/><rect x="1389.2" y="543.6" width="30.2" height="30.2" fill="#c4c3d5"/><rect x="1419.4" y="543.6" width="30.2" height="30.2" fill="#5a588a"/><rect x="1389.2" y="573.8" width="30.2" height="30.2" fill="#908fb1"/><rect x="1419.4" y="573.8" width="30.2" height="30.2" fill="#40a2ff"/><rect x="1449.6" y="543.6" width="60.4" height="60.4" fill="#ffffff"/><rect x="1479.8" y="543.6" width="30.2" height="30.2" fill="#8ec8ff"/><rect x="1449.6" y="573.8" width="30.2" height="30.2" fill="#242164"/><rect x="1479.8" y="573.8" width="30.2" height="30.2" fill="#0f0c55"/><rect x="0" y="604" width="60.4" height="60.4" fill="#ffffff"/><rect x="0" y="604" width="30.2" height="30.2" fill="#5aafff"/><rect x="30.2" y="604" width="30.2" height="30.2" fill="#5eb1ff"/><rect x="0" y="634.2" width="30.2" height="30.2" fill="#f8f8fa"/><rect x="30.2" y="634.2" width="30.2" height="30.2" fill="#5bafff"/><rect x="60.4" y="604" width="60.4" height="60.4" fill="#ffffff"/><rect x="60.4" y="604" width="30.2" height="30.2" fill="#e3f1ff"/><rect x="90.6" y="604" width="30.2" height="30.2" fill="#ecf6ff"/><rect x="60.4" y="634.2" width="30.2" height="30.2" fill="#51abff"/><rect x="90.6" y="634.2" width="30.2" height="30.2" fill="#282567"/><rect x="120.8" y="604" width="60.4" height="60.4" fill="#ffffff"/><rect x="120.8" y="604" width="30.2" height="30.2" fill="#e0f0ff"/><rect x="151" y="604" width="30.2" height="30.2" fill="#93cbff"/><rect x="120.8" y="634.2" width="30.2" height="30.2" fill="#7d7ba3"/><rect x="151" y="634.2" width="30.2" height="30.2" fill="#71baff"/><rect x="181.2" y="604" width="60.4" height="60.4" fill="#ffffff"/><rect x="181.2" y="604" width="30.2" height="30.2" fill="#45a5ff"/><rect x="211.4" y="604" width="30.2" height="30.2" fill="#e6e5ed"/><rect x="181.2" y="634.2" width="30.2" height="30.2" fill="#6eb8ff"/><rect x="211.4" y="634.2" width="30.2" height="30.2" fill="#6db8ff"/><rect x="241.6" y="604" width="60.4" height="60.4" fill="#ffffff"/><rect x="241.6" y="604" width="30.2" height="30.2" fill="#afaec6"/><rect x="271.8" y="604" width="30.2" height="30.2" fill="#6bb7ff"/><rect x="241.6" y="634.2" width="30.2" height="30.2" fill="#47a6ff"/><rect x="271.8" y="634.2" width="30.2" height="30.2" fill="#aaa9c3"/><rect x="302" y="604" width="60.4" height="60.4" fill="#ffffff"/><rect x="302" y="604" width="30.2" height="30.2" fill="#71baff"/><rect x="332.2" y="604" width="30.2" height="30.2" fill="#42a4ff"/><rect x="302" y="634.2" width="30.2" height="30.2" fill="#a6d4ff"/><rect x="332.2" y="634.2" width="30.2" height="30.2" fill="#d9edff"/><rect x="362.4" y="604" width="60.4" height="60.4" fill="#ffffff"/><rect x="362.4" y="604" width="30.2" height="30.2" fill="#4d4a81"/><rect x="392.6" y="604" width="30.2" height="30.2" fill="#c5c4d6"/><rect x="362.4" y="634.2" width="30.2" height="30.2" fill="#cae5ff"/><rect x="392.6" y="634.2" width="30.2" height="30.2" fill="#75739d"/><rect x="422.8" y="604" width="60.4" height="60.4" fill="#ffffff"/><rect x="422.8" y="604" width="30.2" height="30.2" fill="#6eb9ff"/><rect x="453" y="604" width="30.2" height="30.2" fill="#1b185e"/><rect x="422.8" y="634.2" width="30.2" height="30.2" fill="#e3f1ff"/><rect x="453" y="634.2" width="30.2" height="30.2" fill="#4ba8ff"/><rect x="483.2" y="604" width="60.4" height="60.4" fill="#ffffff"/><rect x="483.2" y="604" width="30.2" height="30.2" fill="#abd6ff"/><rect x="513.4" y="604" width="30.2" height="30.2" fill="#1d1b5f"/><rect x="483.2" y="634.2" width="30.2" height="30.2" fill="#46447c"/><rect x="513.4" y="634.2" width="30.2" height="30.2" fill="#413f78"/><rect x="543.6" y="604" width="60.4" height="60.4" fill="#ffffff"/><rect x="543.6" y="604" width="30.2" height="30.2" fill="#1e1b5f"/><rect x="573.8" y="604" width="30.2" height="30.2" fill="#f7f7f9"/><rect x="543.6" y="634.2" width="30.2" height="30.2" fill="#72baff"/><rect x="573.8" y="634.2" width="30.2" height="30.2" fill="#bee0ff"/><rect x="604" y="604" width="60.4" height="60.4" fill="#ffffff"/><rect x="604" y="604" width="30.2" height="30.2" fill="#363471"/><rect x="634.2" y="604" width="30.2" height="30.2" fill="#e1f0ff"/><rect x="604" y="634.2" width="30.2" height="30.2" fill="#5e5c8d"/><rect x="634.2" y="634.2" width="30.2" height="30.2" fill="#e1f1ff"/><rect x="664.4" y="604" width="60.4" height="60.4" fill="#ffffff"/><rect x="664.4" y="604" width="30.2" height="30.2" fill="#e5f2ff"/><rect x="694.6" y="604" width="30.2" height="30.2" fill="#e4f2ff"/><rect x="664.4" y="634.2" width="30.2" height="30.2" fill="#5e5c8d"/><rect x="694.6" y="634.2" width="30.2" height="30.2" fill="#f2f2f6"/><rect x="724.8" y="604" width="60.4" height="60.4" fill="#ffffff"/><rect x="724.8" y="604" width="30.2" height="30.2" fill="#9594b4"/><rect x="755" y="604" width="30.2" height="30.2" fill="#a6d4ff"/><rect x="724.8" y="634.2" width="30.2" height="30.2" fill="#7cbfff"/><rect x="755" y="634.2" width="30.2" height="30.2" fill="#aeadc5"/><rect x="785.1999999999999" y="604" width="60.4" height="60.4" fill="#ffffff"/><rect x="785.2" y="604" width="30.2" height="30.2" fill="#a09ebc"/><rect x="815.4" y="604" width="30.2" height="30.2" fill="#666593"/><rect x="785.2" y="634.2" width="30.2" height="30.2" fill="#cbe6ff"/><rect x="815.4" y="634.2" width="30.2" height="30.2" fill="#131058"/><rect x="845.6" y="604" width="60.4" height="60.4" fill="#ffffff"/><rect x="845.6" y="604" width="30.2" height="30.2" fill="#4ca8ff"/><rect x="875.8" y="604" width="30.2" height="30.2" fill="#8ec8ff"/><rect x="845.6" y="634.2" width="30.2" height="30.2" fill="#8fc9ff"/><rect x="875.8" y="634.2" width="30.2" height="30.2" fill="#9998b7"/><rect x="906" y="604" width="60.4" height="60.4" fill="#ffffff"/><rect x="906" y="604" width="30.2" height="30.2" fill="#f7fbff"/><rect x="936.2" y="604" width="30.2" height="30.2" fill="#312f6d"/><rect x="906" y="634.2" width="30.2" height="30.2" fill="#6bb7ff"/><rect x="936.2" y="634.2" width="30.2" height="30.2" fill="#d1d1df"/><rect x="966.4" y="604" width="60.4" height="60.4" fill="#ffffff"/><rect x="966.4" y="604" width="30.2" height="30.2" fill="#98cdff"/><rect x="996.6" y="604" width="30.2" height="30.2" fill="#6eb8ff"/><rect x="966.4" y="634.2" width="30.2" height="30.2" fill="#b1d9ff"/><rect x="996.6" y="634.2" width="30.2" height="30.2" fill="#48457d"/><rect x="1026.8" y="604" width="60.4" height="60.4" fill="#ffffff"/><rect x="1026.8" y="604" width="30.2" height="30.2" fill="#3a3773"/><rect x="1057" y="604" width="30.2" height="30.2" fill="#e2e1ea"/><rect x="1026.8" y="634.2" width="30.2" height="30.2" fill="#bfe0ff"/><rect x="1057" y="634.2" width="30.2" height="30.2" fill="#d1e9ff"/><rect x="1087.2" y="604" width="60.4" height="60.4" fill="#ffffff"/><rect x="1087.2" y="604" width="30.2" height="30.2" fill="#70baff"/><rect x="1117.4" y="604" width="30.2" height="30.2" fill="#74729d"/><rect x="1087.2" y="634.2" width="30.2" height="30.2" fill="#a8d5ff"/><rect x="1117.4" y="634.2" width="30.2" height="30.2" fill="#807fa5"/><rect x="1147.6" y="604" width="60.4" height="60.4" fill="#ffffff"/><rect x="1147.6" y="604" width="30.2" height="30.2" fill="#badeff"/><rect x="1177.8" y="604" width="30.2" height="30.2" fill="#c1e1ff"/><rect x="1147.6" y="634.2" width="30.2" height="30.2" fill="#9fd0ff"/><rect x="1177.8" y="634.2" width="30.2" height="30.2" fill="#6b6996"/><rect x="1208" y="604" width="60.4" height="60.4" fill="#ffffff"/><rect x="1208" y="604" width="30.2" height="30.2" fill="#7abeff"/><rect x="1238.2" y="604" width="30.2" height="30.2" fill="#6f6d99"/><rect x="1208" y="634.2" width="30.2" height="30.2" fill="#84c3ff"/><rect x="1238.2" y="634.2" width="30.2" height="30.2" fill="#bfbed1"/><rect x="1268.3999999999999" y="604" width="60.4" height="60.4" fill="#ffffff"/><rect x="1268.4" y="604" width="30.2" height="30.2" fill="#bddfff"/><rect x="1298.6" y="604" width="30.2" height="30.2" fill="#bebdd1"/><rect x="1268.4" y="634.2" width="30.2" height="30.2" fill="#8482a8"/><rect x="1298.6" y="634.2" width="30.2" height="30.2" fill="#413f79"/><rect x="1328.8" y="604" width="60.4" height="60.4" fill="#ffffff"/><rect x="1328.8" y="604" width="30.2" height="30.2" fill="#fcfcfd"/><rect x="1359" y="604" width="30.2" height="30.2" fill="#7c7aa2"/><rect x="1328.8" y="634.2" width="30.2" height="30.2" fill="#9ed0ff"/><rect x="1359" y="634.2" width="30.2" height="30.2" fill="#615f8f"/><rect x="1389.2" y="604" width="60.4" height="60.4" fill="#ffffff"/><rect x="1389.2" y="604" width="30.2" height="30.2" fill="#9190b1"/><rect x="1419.4" y="604" width="30.2" height="30.2" fill="#201d61"/><rect x="1389.2" y="634.2" width="30.2" height="30.2" fill="#a3d2ff"/><rect x="1419.4" y="634.2" width="30.2" height="30.2" fill="#55acff"/><rect x="1449.6" y="604" width="60.4" height="60.4" fill="#ffffff"/><rect x="1449.6" y="604" width="30.2" height="30.2" fill="#41a3ff"/><rect x="1479.8" y="604" width="30.2" height="30.2" fill="#fefdfe"/><rect x="1449.6" y="634.2" width="30.2" height="30.2" fill="#0e0b54"/><rect x="1479.8" y="634.2" width="30.2" height="30.2" fill="#e6f3ff"/><rect x="0" y="664.4" width="60.4" height="60.4" fill="#ffffff"/><rect x="0" y="664.4" width="30.2" height="30.2" fill="#8bc7ff"/><rect x="30.2" y="664.4" width="30.2" height="30.2" fill="#e2e2eb"/><rect x="0" y="694.6" width="30.2" height="30.2" fill="#43417a"/><rect x="30.2" y="694.6" width="30.2" height="30.2" fill="#ecf6ff"/><rect x="60.4" y="664.4" width="60.4" height="60.4" fill="#ffffff"/><rect x="60.4" y="664.4" width="30.2" height="30.2" fill="#c2c1d4"/><rect x="90.6" y="664.4" width="30.2" height="30.2" fill="#b5b4cb"/><rect x="60.4" y="694.6" width="30.2" height="30.2" fill="#424079"/><rect x="90.6" y="694.6" width="30.2" height="30.2" fill="#4aa7ff"/><rect x="120.8" y="664.4" width="60.4" height="60.4" fill="#ffffff"/><rect x="120.8" y="664.4" width="30.2" height="30.2" fill="#48a6ff"/><rect x="151" y="664.4" width="30.2" height="30.2" fill="#aeadc6"/><rect x="120.8" y="694.6" width="30.2" height="30.2" fill="#c9e5ff"/><rect x="151" y="694.6" width="30.2" height="30.2" fill="#bcdfff"/><rect x="181.2" y="664.4" width="60.4" height="60.4" fill="#ffffff"/><rect x="181.2" y="664.4" width="30.2" height="30.2" fill="#d6d6e2"/><rect x="211.4" y="664.4" width="30.2" height="30.2" fill="#141159"/><rect x="181.2" y="694.6" width="30.2" height="30.2" fill="#535185"/><rect x="211.4" y="694.6" width="30.2" height="30.2" fill="#7e7ca3"/><rect x="241.6" y="664.4" width="60.4" height="60.4" fill="#ffffff"/><rect x="241.6" y="664.4" width="30.2" height="30.2" fill="#97cdff"/><rect x="271.8" y="664.4" width="30.2" height="30.2" fill="#74bbff"/><rect x="241.6" y="694.6" width="30.2" height="30.2" fill="#f2f2f6"/><rect x="271.8" y="694.6" width="30.2" height="30.2" fill="#4aa7ff"/><rect x="302" y="664.4" width="60.4" height="60.4" fill="#ffffff"/><rect x="302" y="664.4" width="30.2" height="30.2" fill="#9897b6"/><rect x="332.2" y="664.4" width="30.2" height="30.2" fill="#78769f"/><rect x="302" y="694.6" width="30.2" height="30.2" fill="#8886ab"/><rect x="332.2" y="694.6" width="30.2" height="30.2" fill="#bdbcd0"/><rect x="362.4" y="664.4" width="60.4" height="60.4" fill="#ffffff"/><rect x="362.4" y="664.4" width="30.2" height="30.2" fill="#f6f6f8"/><rect x="392.6" y="664.4" width="30.2" height="30.2" fill="#a9a8c2"/><rect x="362.4" y="694.6" width="30.2" height="30.2" fill="#a6d4ff"/><rect x="392.6" y="694.6" width="30.2" height="30.2" fill="#afaec6"/><rect x="422.8" y="664.4" width="60.4" height="60.4" fill="#ffffff"/><rect x="422.8" y="664.4" width="30.2" height="30.2" fill="#45a5ff"/><rect x="453" y="664.4" width="30.2" height="30.2" fill="#a6d4ff"/><rect x="422.8" y="694.6" width="30.2" height="30.2" fill="#e4f2ff"/><rect x="453" y="694.6" width="30.2" height="30.2" fill="#4d4b81"/><rect x="483.2" y="664.4" width="60.4" height="60.4" fill="#ffffff"/><rect x="483.2" y="664.4" width="30.2" height="30.2" fill="#e4f2ff"/><rect x="513.4" y="664.4" width="30.2" height="30.2" fill="#359dff"/><rect x="483.2" y="694.6" width="30.2" height="30.2" fill="#66b5ff"/><rect x="513.4" y="694.6" width="30.2" height="30.2" fill="#272466"/><rect x="543.6" y="664.4" width="60.4" height="60.4" fill="#ffffff"/><rect x="543.6" y="664.4" width="30.2" height="30.2" fill="#595789"/><rect x="573.8" y="664.4" width="30.2" height="30.2" fill="#8684a9"/><rect x="543.6" y="694.6" width="30.2" height="30.2" fill="#aad6ff"/><rect x="573.8" y="694.6" width="30.2" height="30.2" fill="#77bdff"/><rect x="604" y="664.4" width="60.4" height="60.4" fill="#ffffff"/><rect x="604" y="664.4" width="30.2" height="30.2" fill="#42a4ff"/><rect x="634.2" y="664.4" width="30.2" height="30.2" fill="#fafdff"/><rect x="604" y="694.6" width="30.2" height="30.2" fill="#8c8aad"/><rect x="634.2" y="694.6" width="30.2" height="30.2" fill="#f7fbff"/><rect x="664.4" y="664.4" width="60.4" height="60.4" fill="#ffffff"/><rect x="664.4" y="664.4" width="30.2" height="30.2" fill="#292668"/><rect x="694.6" y="664.4" width="30.2" height="30.2" fill="#413f79"/><rect x="664.4" y="694.6" width="30.2" height="30.2" fill="#fdfeff"/><rect x="694.6" y="694.6" width="30.2" height="30.2" fill="#373572"/><rect x="724.8" y="664.4" width="60.4" height="60.4" fill="#ffffff"/><rect x="724.8" y="664.4" width="30.2" height="30.2" fill="#3a9fff"/><rect x="755" y="664.4" width="30.2" height="30.2" fill="#afaec6"/><rect x="724.8" y="694.6" width="30.2" height="30.2" fill="#b1d9ff"/><rect x="755" y="694.6" width="30.2" height="30.2" fill="#d8d7e3"/><rect x="785.1999999999999" y="664.4" width="60.4" height="60.4" fill="#ffffff"/><rect x="785.2" y="664.4" width="30.2" height="30.2" fill="#f8f8fa"/><rect x="815.4" y="664.4" width="30.2" height="30.2" fill="#47457d"/><rect x="785.2" y="694.6" width="30.2" height="30.2" fill="#908fb0"/><rect x="815.4" y="694.6" width="30.2" height="30.2" fill="#c6e3ff"/><rect x="845.6" y="664.4" width="60.4" height="60.4" fill="#ffffff"/><rect x="845.6" y="664.4" width="30.2" height="30.2" fill="#80c1ff"/><rect x="875.8" y="664.4" width="30.2" height="30.2" fill="#a3d2ff"/><rect x="845.6" y="694.6" width="30.2" height="30.2" fill="#84c4ff"/><rect x="875.8" y="694.6" width="30.2" height="30.2" fill="#74729c"/><rect x="906" y="664.4" width="60.4" height="60.4" fill="#ffffff"/><rect x="906" y="664.4" width="30.2" height="30.2" fill="#3c3975"/><rect x="936.2" y="664.4" width="30.2" height="30.2" fill="#9f9ebb"/><rect x="906" y="694.6" width="30.2" height="30.2" fill="#908eb0"/><rect x="936.2" y="694.6" width="30.2" height="30.2" fill="#bcdeff"/><rect x="966.4" y="664.4" width="60.4" height="60.4" fill="#ffffff"/><rect x="966.4" y="664.4" width="30.2" height="30.2" fill="#5d5b8c"/><rect x="996.6" y="664.4" width="30.2" height="30.2" fill="#4c4a80"/><rect x="966.4" y="694.6" width="30.2" height="30.2" fill="#42a3ff"/><rect x="996.6" y="694.6" width="30.2" height="30.2" fill="#e5f2ff"/><rect x="1026.8" y="664.4" width="60.4" height="60.4" fill="#ffffff"/><rect x="1026.8" y="664.4" width="30.2" height="30.2" fill="#696795"/><rect x="1057" y="664.4" width="30.2" height="30.2" fill="#9c9bb9"/><rect x="1026.8" y="694.6" width="30.2" height="30.2" fill="#b6b5cb"/><rect x="1057" y="694.6" width="30.2" height="30.2" fill="#363471"/><rect x="1087.2" y="664.4" width="60.4" height="60.4" fill="#ffffff"/><rect x="1087.2" y="664.4" width="30.2" height="30.2" fill="#626090"/><rect x="1117.4" y="664.4" width="30.2" height="30.2" fill="#f8f8fa"/><rect x="1087.2" y="694.6" width="30.2" height="30.2" fill="#19165c"/><rect x="1117.4" y="694.6" width="30.2" height="30.2" fill="#fcfdff"/><rect x="1147.6" y="664.4" width="60.4" height="60.4" fill="#ffffff"/><rect x="1147.6" y="664.4" width="30.2" height="30.2" fill="#97ccff"/><rect x="1177.8" y="664.4" width="30.2" height="30.2" fill="#93cbff"/><rect x="1147.6" y="694.6" width="30.2" height="30.2" fill="#201d61"/><rect x="1177.8" y="694.6" width="30.2" height="30.2" fill="#4e4b81"/><rect x="1208" y="664.4" width="60.4" height="60.4" fill="#ffffff"/><rect x="1208" y="664.4" width="30.2" height="30.2" fill="#9391b2"/><rect x="1238.2" y="664.4" width="30.2" height="30.2" fill="#32306e"/><rect x="1208" y="694.6" width="30.2" height="30.2" fill="#cac9d9"/><rect x="1238.2" y="694.6" width="30.2" height="30.2" fill="#3ca0ff"/><rect x="1268.3999999999999" y="664.4" width="60.4" height="60.4" fill="#ffffff"/><rect x="1268.4" y="664.4" width="30.2" height="30.2" fill="#918fb1"/><rect x="1298.6" y="664.4" width="30.2" height="30.2" fill="#d7d6e2"/><rect x="1268.4" y="694.6" width="30.2" height="30.2" fill="#a8d5ff"/><rect x="1298.6" y="694.6" width="30.2" height="30.2" fill="#46447c"/><rect x="1328.8" y="664.4" width="60.4" height="60.4" fill="#ffffff"/><rect x="1328.8" y="664.4" width="30.2" height="30.2" fill="#4ea9ff"/><rect x="1359" y="664.4" width="30.2" height="30.2" fill="#646291"/><rect x="1328.8" y="694.6" width="30.2" height="30.2" fill="#ddefff"/><rect x="1359" y="694.6" width="30.2" height="30.2" fill="#8b8aad"/><rect x="1389.2" y="664.4" width="60.4" height="60.4" fill="#ffffff"/><rect x="1389.2" y="664.4" width="30.2" height="30.2" fill="#8886ab"/><rect x="1419.4" y="664.4" width="30.2" height="30.2" fill="#626090"/><rect x="1389.2" y="694.6" width="30.2" height="30.2" fill="#3ea1ff"/><rect x="1419.4" y="694.6" width="30.2" height="30.2" fill="#95ccff"/><rect x="1449.6" y="664.4" width="60.4" height="60.4" fill="#ffffff"/><rect x="1449.6" y="664.4" width="30.2" height="30.2" fill="#131158"/><rect x="1479.8" y="664.4" width="30.2" height="30.2" fill="#bedfff"/><rect x="1449.6" y="694.6" width="30.2" height="30.2" fill="#a6d4ff"/><rect x="1479.8" y="694.6" width="30.2" height="30.2" fill="#8fc9ff"/></g></svg>